<svg width="133" height="29" viewBox="0 0 133 29" fill="none" xmlns="http://www.w3.org/2000/svg">
<path d="M1.49841 21.3077C0.794913 21.7451 0.579259 22.6701 1.01673 23.3736C1.45421 24.0771 2.37915 24.2927 3.08264 23.8553L1.49841 21.3077ZM131.198 23.9978C131.98 23.7249 132.393 22.8696 132.12 22.0874L127.673 9.3408C127.4 8.5586 126.545 8.14573 125.763 8.41861C124.981 8.69149 124.568 9.5468 124.841 10.329L128.794 21.6593L117.463 25.6121C116.681 25.885 116.268 26.7403 116.541 27.5225C116.814 28.3047 117.669 28.7175 118.451 28.4446L131.198 23.9978ZM3.08264 23.8553C25.2094 10.0956 43.1246 3.53257 62.3193 3.63355C81.5624 3.73479 102.292 10.5318 130.052 23.9323L131.356 21.2306C103.491 7.77943 82.266 0.738446 62.3351 0.633595C42.3559 0.528489 23.8771 7.39134 1.49841 21.3077L3.08264 23.8553Z" fill="black"/>
</svg>
