<svg width="112" height="112" viewBox="0 0 112 112" fill="none" xmlns="http://www.w3.org/2000/svg">
<g clip-path="url(#clip0)">
<path d="M44.08 86.7468L46.2133 85.4177L49.2 82.3165L54.7467 80.1013L69.68 77L73.9467 77.8861L76.9333 80.5443L79.0667 84.0886L82.48 87.1899L87.1733 89.8481L89.7333 92.9494L90.5867 98.7089L94 112H30L35.8156 95.7223L38.96 88.962L44.08 86.7468Z" fill="#FFFF8B"/>
<path d="M91.5283 103.379L95 112H72V108.121L72.8679 101.224L77.2075 95.1897L81.5472 87L88.4906 91.3103L90.6604 94.7586L91.5283 103.379Z" fill="#FFFFB8"/>
<path d="M82 87C79.943 90.607 76.2697 96.5224 73.625 100.418C71.5359 103.495 71.7149 112.249 72.7434 116" stroke="#FFFFB9"/>
<path d="M55.6591 79.6585C54.0912 79.8062 50.2711 80.8991 47.5344 84.0893C44.7976 87.2795 40.6925 88.6679 38.982 88.9633C33.8505 96.9388 30.3441 111.472 30.002 112.89C29.6599 114.308 73.1915 114.071 95 113.776C93.5746 109.936 90.7238 101.458 90.7238 98.268C90.7238 94.2803 89.8686 91.6218 85.5924 88.9633C81.3162 86.3048 78.7505 84.0893 77.8952 82.317C77.04 80.5447 75.3295 77.4431 70.1981 77" stroke="#F2D367"/>
<path d="M73 81.2235L66.5227 97.7647L65.2273 105.6V112.565L55.2955 113L56.5909 101.682L54.8636 95.1529L54 88.1882L55.2955 79.4824L58.75 76.8706L68.6818 76L69.9773 76.8706L71.7045 80.3529L73 81.2235Z" fill="#18181F"/>
<mask id="mask0" style="mask-type:alpha" maskUnits="userSpaceOnUse" x="53" y="86" width="17" height="9">
<path d="M54.5 93L67.5 94.5L70 89V87L54 86L53.5 89L54.5 93Z" fill="#C4C4C4"/>
</mask>
<g mask="url(#mask0)">
<path d="M63 87L71.1276 87.5519L70.9301 90.4611L62.8025 89.9093L63 87Z" fill="#A54141"/>
<path d="M51.9064 88.3366L52.6906 88.3755L52.3479 87.3905C52.345 87.3904 52.2848 87.5194 52.1673 87.7775L51.9064 88.3366ZM52.5039 86.9656C52.5068 86.9657 52.544 87.0727 52.6156 87.2865L53.2682 89.1492L53.2652 89.1505L52.9594 89.1354C52.9555 89.1352 52.943 89.1018 52.9219 89.0352L52.7921 88.6651L51.7753 88.6146L51.5666 89.0663L51.2638 89.0512L51.2638 89.0498L52.0948 87.2592L52.2391 86.9525L52.5039 86.9656ZM54.5668 87.0679L54.5697 87.0681C54.8457 87.0818 55.0818 87.201 55.2779 87.4259C55.3469 87.5134 55.3951 87.5881 55.4223 87.6501C55.4141 87.6565 55.3295 87.6978 55.1683 87.7739C55.1443 87.7248 55.1076 87.6677 55.058 87.6027C54.9143 87.443 54.7469 87.3585 54.5558 87.349C54.3617 87.3394 54.1857 87.4079 54.0278 87.5545C53.8754 87.7102 53.794 87.8925 53.7837 88.1012C53.7717 88.3431 53.8536 88.554 54.0295 88.7338C54.1633 88.8538 54.3083 88.9178 54.4644 88.9255L54.4951 88.927C54.6667 88.9355 54.8307 88.8728 54.9869 88.7388C55.0538 88.6717 55.1017 88.6129 55.1306 88.5626L55.3714 88.705L55.3711 88.7109C55.3349 88.7707 55.2878 88.8334 55.2298 88.8989C55.0057 89.1205 54.7502 89.2242 54.4634 89.21C54.1786 89.1958 53.9356 89.0694 53.7343 88.8306C53.5665 88.6062 53.4892 88.3604 53.5025 88.0931L53.5029 88.0843C53.5163 87.8142 53.619 87.5763 53.8111 87.3707C54.033 87.1549 54.2849 87.054 54.5668 87.0679ZM56.6999 87.1738L56.7028 87.1739C56.9789 87.1876 57.2149 87.3069 57.4111 87.5317C57.4801 87.6192 57.5282 87.694 57.5554 87.7559C57.5473 87.7624 57.4626 87.8036 57.3014 87.8797C57.2774 87.8306 57.2407 87.7736 57.1911 87.7085C57.0475 87.5489 56.8801 87.4643 56.6889 87.4548C56.4948 87.4452 56.3188 87.5137 56.161 87.6604C56.0085 87.8161 55.9271 87.9983 55.9168 88.207C55.9048 88.4489 55.9867 88.6598 56.1626 88.8396C56.2965 88.9597 56.4414 89.0236 56.5975 89.0313L56.6282 89.0328C56.7999 89.0414 56.9638 88.9786 57.1201 88.8446C57.187 88.7775 57.2348 88.7188 57.2637 88.6684L57.5045 88.8109L57.5042 88.8167C57.468 88.8765 57.4209 88.9392 57.3629 89.0048C57.1388 89.2264 56.8833 89.33 56.5966 89.3158C56.3118 89.3017 56.0687 89.1752 55.8674 88.9364C55.6996 88.712 55.6223 88.4662 55.6356 88.1989L55.636 88.1902C55.6494 87.92 55.7522 87.6821 55.9442 87.4765C56.1661 87.2607 56.418 87.1598 56.6999 87.1738ZM57.9332 87.235L59.0832 87.292L59.0846 87.2935L59.0707 87.5744L58.2001 87.5313L58.168 88.1794L58.8571 88.2136L58.8585 88.2151L58.8447 88.4931L58.8431 88.4945L58.1541 88.4603L58.1219 89.1084L58.9924 89.1516L58.9785 89.4325L58.9769 89.4339L57.827 89.3768L57.8256 89.3753L57.9317 87.2363L57.9332 87.235ZM60.0764 87.3163L60.1012 87.3176C60.2124 87.3231 60.3204 87.3553 60.425 87.4143C60.4582 87.4345 60.4908 87.4577 60.5227 87.4837C60.5387 87.4962 60.564 87.52 60.5984 87.5549C60.6344 87.5978 60.6601 87.6323 60.6754 87.6585C60.689 87.6806 60.7011 87.7028 60.7117 87.7248L60.4509 87.838C60.444 87.82 60.4267 87.7938 60.3991 87.7591C60.3141 87.6591 60.2053 87.6058 60.0726 87.5992C59.9419 87.5927 59.8342 87.626 59.7494 87.6991C59.7175 87.7307 59.6972 87.7561 59.6884 87.7752C59.6628 87.8189 59.6488 87.8647 59.6464 87.9125L59.6459 87.9227C59.6426 87.99 59.6648 88.0434 59.7127 88.083C59.7343 88.1016 59.7551 88.1168 59.775 88.1286C59.8244 88.1584 59.8981 88.1899 59.9962 88.2232C60.0693 88.2483 60.1574 88.2747 60.2607 88.3023C60.3184 88.3218 60.3663 88.3417 60.4044 88.3622C60.4415 88.3826 60.4797 88.4095 60.5192 88.4427C60.5537 88.4747 60.5838 88.5085 60.6095 88.544C60.6813 88.6522 60.7141 88.7697 60.7078 88.8965L60.7075 88.9038C60.7013 89.0286 60.6579 89.1453 60.5772 89.2537C60.5635 89.2736 60.5392 89.3002 60.5043 89.3337C60.4574 89.3724 60.4189 89.3998 60.3887 89.4159C60.3566 89.4339 60.3216 89.4498 60.2837 89.4635C60.1792 89.5014 60.0723 89.5176 59.963 89.5122C59.7943 89.5038 59.6422 89.4464 59.5067 89.3399C59.4823 89.3192 59.457 89.2954 59.431 89.2687C59.3939 89.2277 59.3681 89.1962 59.3536 89.1739C59.3254 89.1315 59.3037 89.0942 59.2887 89.0622C59.2728 89.0281 59.264 89.0077 59.2624 89.0007L59.5243 88.8949C59.5382 88.9308 59.5579 88.968 59.5833 89.0064C59.5951 89.0256 59.6135 89.0485 59.6386 89.0751C59.6749 89.1112 59.7045 89.1361 59.7273 89.1499C59.8041 89.1977 59.8859 89.2238 59.9727 89.2281L59.983 89.2286C60.0698 89.2329 60.1538 89.2156 60.2349 89.1766C60.257 89.165 60.2802 89.1495 60.3047 89.1302C60.3323 89.1051 60.353 89.0822 60.3667 89.0614C60.4027 89.0055 60.4223 88.9468 60.4253 88.8854C60.4303 88.7859 60.3923 88.7038 60.3114 88.6392C60.2878 88.6224 60.2664 88.6096 60.2473 88.6008C60.214 88.5835 60.1615 88.5662 60.09 88.549C59.8875 88.492 59.7407 88.4368 59.6494 88.3834C59.4477 88.2707 59.3521 88.1105 59.3624 87.9028C59.3692 87.7643 59.4208 87.6407 59.5172 87.5321C59.5482 87.4984 59.5809 87.4692 59.6154 87.4445C59.6568 87.4163 59.6931 87.3951 59.7241 87.381C59.7581 87.3651 59.7989 87.351 59.8465 87.3387C59.9237 87.32 60.0003 87.3126 60.0764 87.3163ZM61.7267 87.3982L61.7516 87.3995C61.8628 87.405 61.9707 87.4372 62.0753 87.4962C62.1085 87.5164 62.1411 87.5395 62.173 87.5656C62.1891 87.5781 62.2143 87.6018 62.2487 87.6368C62.2847 87.6796 62.3104 87.7142 62.3257 87.7403C62.3393 87.7625 62.3514 87.7846 62.362 87.8067L62.1012 87.9199C62.0943 87.9019 62.077 87.8756 62.0494 87.841C61.9644 87.741 61.8556 87.6877 61.7229 87.6811C61.5922 87.6746 61.4845 87.7079 61.3997 87.7809C61.3678 87.8126 61.3475 87.838 61.3387 87.8571C61.3131 87.9008 61.2991 87.9466 61.2967 87.9943L61.2962 88.0046C61.2929 88.0719 61.3152 88.1253 61.3631 88.1648C61.3846 88.1835 61.4054 88.1987 61.4253 88.2105C61.4747 88.2403 61.5484 88.2718 61.6465 88.305C61.7196 88.3302 61.8077 88.3565 61.911 88.3841C61.9687 88.4036 62.0166 88.4236 62.0547 88.4441C62.0918 88.4645 62.1301 88.4913 62.1695 88.5246C62.2041 88.5566 62.2342 88.5904 62.2598 88.6259C62.3317 88.734 62.3644 88.8515 62.3582 88.9783L62.3578 88.9856C62.3516 89.1105 62.3082 89.2271 62.2275 89.3356C62.2138 89.3554 62.1895 89.3821 62.1546 89.4156C62.1077 89.4543 62.0692 89.4817 62.0391 89.4978C62.0069 89.5158 61.9719 89.5316 61.934 89.5454C61.8295 89.5832 61.7226 89.5995 61.6134 89.594C61.4446 89.5857 61.2925 89.5282 61.157 89.4218C61.1326 89.401 61.1074 89.3773 61.0813 89.3506C61.0442 89.3096 61.0184 89.278 61.0039 89.2558C60.9757 89.2133 60.9541 89.1761 60.939 89.144C60.9231 89.11 60.9143 89.0895 60.9127 89.0826L61.1746 88.9768C61.1885 89.0127 61.2082 89.0498 61.2337 89.0883C61.2454 89.1074 61.2638 89.1303 61.2889 89.157C61.3253 89.193 61.3548 89.218 61.3776 89.2318C61.4544 89.2796 61.5362 89.3057 61.623 89.31L61.6333 89.3105C61.7201 89.3148 61.8041 89.2975 61.8852 89.2585C61.9073 89.2468 61.9305 89.2314 61.955 89.2121C61.9826 89.187 62.0033 89.1641 62.017 89.1433C62.0531 89.0874 62.0726 89.0287 62.0756 88.9672C62.0806 88.8678 62.0426 88.7857 61.9617 88.7211C61.9381 88.7042 61.9168 88.6915 61.8976 88.6827C61.8643 88.6654 61.8118 88.6481 61.7403 88.6309C61.5378 88.5739 61.391 88.5187 61.2998 88.4653C61.0981 88.3526 61.0024 88.1924 61.0127 87.9847C61.0195 87.8462 61.0711 87.7226 61.1675 87.6139C61.1985 87.5803 61.2312 87.5511 61.2657 87.5264C61.3072 87.4982 61.3434 87.477 61.3744 87.4629C61.4085 87.447 61.4492 87.4329 61.4968 87.4205C61.574 87.4019 61.6506 87.3944 61.7267 87.3982ZM55.1823 90.0758L55.2057 90.0769C55.3052 90.0819 55.3995 90.1124 55.4886 90.1687C55.516 90.1877 55.5456 90.2121 55.5773 90.242C55.5913 90.2564 55.6098 90.2774 55.6329 90.3049C55.6629 90.3494 55.6837 90.3852 55.695 90.4121C55.7048 90.4331 55.7121 90.4531 55.717 90.4719L55.7169 90.4733L55.5181 90.5486C55.5098 90.5188 55.4902 90.4817 55.4591 90.4371C55.3848 90.3386 55.2862 90.2862 55.1633 90.2802L55.1604 90.28C55.0404 90.2741 54.9343 90.305 54.8419 90.3727C54.8083 90.4004 54.7847 90.4227 54.7712 90.4396C54.719 90.5045 54.6866 90.5762 54.6739 90.6548C54.66 90.7382 54.6744 90.8039 54.717 90.852C54.7484 90.8888 54.7879 90.9196 54.8356 90.9444C54.9164 90.9905 55.0488 91.0406 55.2329 91.0947C55.28 91.1107 55.3192 91.1288 55.3505 91.1489C55.3895 91.1714 55.4275 91.2026 55.4646 91.2426C55.4932 91.2772 55.5111 91.3021 55.5181 91.3171C55.5326 91.3413 55.5427 91.3633 55.5486 91.3831C55.5813 91.4727 55.5905 91.5641 55.5761 91.6573L55.5758 91.6617L55.5756 91.6675L55.5738 91.6733L55.5721 91.6776C55.5563 91.7795 55.5132 91.879 55.4429 91.9763C55.3539 92.096 55.2348 92.1801 55.0857 92.2284C54.9994 92.2544 54.9177 92.2655 54.8406 92.2617L54.8157 92.2605C54.7192 92.2557 54.6243 92.227 54.5311 92.1745C54.5017 92.1564 54.4706 92.1329 54.4378 92.1039C54.3901 92.0595 54.3492 92.008 54.3149 91.9496C54.2908 91.9044 54.2719 91.861 54.2583 91.8192C54.2465 91.7815 54.2406 91.7616 54.2407 91.7597C54.2447 91.7579 54.3119 91.7349 54.4422 91.6905C54.4554 91.7391 54.4727 91.7839 54.4942 91.8251C54.5021 91.8421 54.5199 91.8679 54.5475 91.9025C54.5807 91.9423 54.6107 91.9697 54.6373 91.9847C54.7035 92.029 54.7771 92.0532 54.8581 92.0572L54.8654 92.0576C54.96 92.0623 55.0531 92.0391 55.1446 91.9879C55.1657 91.9772 55.191 91.9594 55.2206 91.9344C55.2667 91.8917 55.3024 91.8432 55.3275 91.7887C55.3483 91.7447 55.3622 91.7019 55.3691 91.6602L55.3693 91.6558C55.3861 91.554 55.3656 91.4659 55.3076 91.3917C55.276 91.3588 55.2502 91.3375 55.2302 91.3277C55.2179 91.3183 55.1988 91.3086 55.1729 91.2985C55.1547 91.2907 55.1066 91.2751 55.0286 91.2517C54.8736 91.202 54.7573 91.1522 54.6796 91.1024C54.507 90.9941 54.4363 90.8435 54.4674 90.6504L54.4694 90.6388C54.4892 90.5166 54.5441 90.4039 54.6343 90.3008C54.6488 90.284 54.6745 90.2598 54.7112 90.2284C54.7529 90.1962 54.7873 90.1735 54.8144 90.1602C54.8596 90.135 54.909 90.115 54.9625 90.1001C55.0407 90.0805 55.114 90.0724 55.1823 90.0758ZM57.6913 90.2266L57.7088 90.2275C57.9566 90.2398 58.1642 90.3513 58.3317 90.562C58.4045 90.6712 58.4468 90.7535 58.4588 90.8088C58.3329 90.8632 58.268 90.8903 58.2641 90.8901C58.246 90.8403 58.2207 90.7882 58.1882 90.7338C58.055 90.5424 57.883 90.4415 57.6723 90.431L57.6635 90.4306C57.4431 90.4197 57.2358 90.5081 57.0417 90.696C56.8869 90.8594 56.7933 91.043 56.7607 91.2467L56.7585 91.2613C56.7203 91.498 56.7694 91.7106 56.9057 91.8992C57.0347 92.0591 57.1977 92.144 57.3947 92.1538C57.6103 92.1645 57.8149 92.0793 58.0087 91.8982C58.0573 91.8459 58.0968 91.798 58.1273 91.7545L58.2924 91.8566C58.2612 91.9137 58.1896 91.9967 58.0776 92.1055C57.8477 92.2857 57.6069 92.3696 57.3553 92.3571C57.0871 92.3438 56.8683 92.2205 56.699 91.9872C56.5596 91.7623 56.5111 91.5169 56.5536 91.2511L56.5558 91.2366C56.5979 90.9404 56.7391 90.6869 56.9793 90.4758C57.2064 90.2935 57.4437 90.2104 57.6913 90.2266ZM59.511 90.3169L59.707 90.3266L59.7112 90.3313L59.5552 91.2886L60.5003 91.3355L60.6563 90.3781L60.6595 90.3739L60.857 90.3837L60.8612 90.3883L60.5154 92.5095L60.5108 92.5137L60.3133 92.5039L60.3106 92.4994L60.4667 91.5391L59.5216 91.4922L59.3654 92.4525L59.3608 92.4566L59.1648 92.4469L59.1606 92.4423L59.5064 90.3211L59.511 90.3169ZM62.7967 90.4799L62.8055 90.4804C63.0542 90.4927 63.2626 90.5984 63.4307 90.7974C63.4921 90.8796 63.5309 90.9441 63.5472 90.9909C63.6308 91.1779 63.6556 91.3771 63.6217 91.5886L63.6196 91.6002C63.5728 91.8932 63.4288 92.1461 63.1875 92.359C62.9684 92.5378 62.7251 92.6216 62.4578 92.6103C62.2081 92.5979 61.9992 92.4927 61.8311 92.2947C61.7588 92.1953 61.7164 92.1232 61.7039 92.0786C61.6279 91.8969 61.6061 91.7061 61.6385 91.5063L61.6409 91.4859C61.6831 91.2269 61.8027 90.9943 61.9997 90.788C62.0804 90.7177 62.1379 90.6726 62.1721 90.6528C62.3729 90.5269 62.5811 90.4692 62.7967 90.4799ZM61.8456 91.499L61.8434 91.5136C61.8053 91.7493 61.8559 91.9625 61.995 92.1532C62.1279 92.3123 62.2939 92.3968 62.4928 92.4067C62.7259 92.4183 62.9432 92.3254 63.1446 92.1281C63.2935 91.9663 63.3835 91.787 63.4148 91.59L63.4169 91.5784C63.455 91.3417 63.404 91.128 63.2639 90.9372C63.1319 90.7782 62.9665 90.6937 62.7675 90.6838C62.5363 90.6723 62.323 90.7561 62.1273 90.9351C61.9734 91.1005 61.8795 91.2885 61.8456 91.499ZM65.7122 90.6246L65.721 90.625C65.9697 90.6373 66.1781 90.743 66.3462 90.942C66.4076 91.0243 66.4465 91.0888 66.4628 91.1355C66.5464 91.3225 66.5712 91.5218 66.5372 91.7332L66.5352 91.7449C66.4884 92.0378 66.3443 92.2908 66.103 92.5037C65.8839 92.6825 65.6407 92.7662 65.3734 92.7549C65.1237 92.7425 64.9148 92.6373 64.7466 92.4393C64.6743 92.3399 64.6319 92.2679 64.6195 92.2233C64.5434 92.0415 64.5216 91.8508 64.554 91.651L64.5565 91.6306C64.5987 91.3716 64.7183 91.1389 64.9152 90.9326C64.996 90.8623 65.0535 90.8173 65.0877 90.7975C65.2885 90.6715 65.4967 90.6139 65.7122 90.6246ZM64.7612 91.6436L64.759 91.6582C64.7209 91.8939 64.7714 92.1071 64.9106 92.2978C65.0435 92.457 65.2094 92.5415 65.4084 92.5513C65.6415 92.5629 65.8588 92.47 66.0602 92.2727C66.209 92.111 66.2991 91.9316 66.3304 91.7347L66.3324 91.7231C66.3705 91.4864 66.3196 91.2727 66.1794 91.0819C66.0475 90.9228 65.882 90.8383 65.6831 90.8285C65.4519 90.817 65.2385 90.9008 65.0429 91.0798C64.889 91.2452 64.7951 91.4331 64.7612 91.6436ZM67.7236 90.7244L67.9255 90.7344L67.9255 90.7358L67.6129 92.6607L68.5302 92.7062L68.4967 92.9099L67.376 92.8543L67.3746 92.8527L67.7206 90.7257L67.7236 90.7244Z" fill="white"/>
<path d="M64.4394 87.5577L64.4423 87.5579C64.7184 87.5716 64.9544 87.6908 65.1506 87.9157C65.2196 88.0032 65.2677 88.0779 65.2949 88.1399C65.2868 88.1463 65.2021 88.1876 65.0409 88.2637C65.0169 88.2146 64.9802 88.1575 64.9306 88.0925C64.787 87.9328 64.6196 87.8483 64.4284 87.8388C64.2343 87.8292 64.0583 87.8977 63.9005 88.0443C63.748 88.2 63.6666 88.3823 63.6563 88.591C63.6443 88.8329 63.7262 89.0438 63.9021 89.2236C64.036 89.3437 64.1809 89.4076 64.337 89.4153L64.3677 89.4168C64.5394 89.4253 64.7033 89.3626 64.8596 89.2286C64.9265 89.1615 64.9743 89.1027 65.0032 89.0524L65.244 89.1948L65.2437 89.2007C65.2075 89.2605 65.1604 89.3232 65.1024 89.3887C64.8783 89.6103 64.6228 89.714 64.3361 89.6998C64.0513 89.6856 63.8082 89.5592 63.6069 89.3204C63.4391 89.096 63.3618 88.8502 63.3751 88.5829L63.3755 88.5741C63.3889 88.304 63.4917 88.0661 63.6837 87.8605C63.9056 87.6447 64.1575 87.5438 64.4394 87.5577ZM66.5915 87.6645L66.5959 87.6647C66.8788 87.6788 67.1215 87.8018 67.3241 88.0338C67.5026 88.2597 67.585 88.5107 67.5713 88.7867C67.5563 89.0891 67.4316 89.3474 67.197 89.5616C66.98 89.7376 66.7442 89.8193 66.4897 89.8066C66.2341 89.7939 66.0085 89.6913 65.8127 89.4988C65.7266 89.4006 65.6717 89.3256 65.6479 89.2735C65.5465 89.0896 65.501 88.8937 65.5113 88.686L65.5116 88.6801C65.5266 88.3778 65.6528 88.119 65.8903 87.904L65.9924 87.8284C66.1811 87.7087 66.3809 87.6541 66.5915 87.6645ZM65.7923 88.697C65.7809 88.9281 65.8587 89.1329 66.0258 89.3114C66.164 89.4434 66.3233 89.5138 66.5038 89.5228C66.7378 89.5344 66.9405 89.4408 67.1117 89.242C67.2205 89.0988 67.2789 88.9462 67.2869 88.7843L67.2879 88.7653C67.2978 88.5654 67.237 88.3815 67.1055 88.2136C66.9574 88.0449 66.7829 87.9556 66.582 87.9456C66.3567 87.9345 66.1588 88.0209 65.9883 88.2051C65.8666 88.3536 65.8012 88.5175 65.7923 88.697ZM68.0135 87.7365L68.571 87.7642C68.8285 87.777 69.0578 87.8753 69.2588 88.0594C69.336 88.1395 69.385 88.1971 69.4057 88.2324C69.5404 88.4356 69.602 88.6513 69.5907 88.8796L69.5899 88.8956C69.5758 89.1805 69.4549 89.4287 69.2273 89.6403C69.103 89.7417 68.9827 89.811 68.8665 89.8483C68.7333 89.8925 68.6038 89.9115 68.4779 89.9053L67.9074 89.877L67.9032 89.8724L68.0089 87.7407L68.0135 87.7365ZM68.2774 88.0356L68.1993 89.6084L68.4568 89.6212C68.7065 89.6335 68.9183 89.5521 69.0923 89.377C69.2277 89.2302 69.3 89.0626 69.3093 88.8744C69.3188 88.6832 69.262 88.5078 69.1389 88.3482C69.0659 88.2634 69.0084 88.2097 68.9665 88.1871C68.9298 88.1579 68.8708 88.1266 68.7893 88.0933C68.7173 88.0662 68.6223 88.0498 68.5043 88.0439L68.2804 88.0328L68.2774 88.0356ZM70.0326 87.8352L71.1826 87.8923L71.184 87.8938L71.17 88.1747L70.2995 88.1315L70.2674 88.7797L70.9565 88.8138L70.9578 88.8154L70.9441 89.0934L70.9425 89.0948L70.2534 89.0606L70.2213 89.7087L71.0918 89.7519L71.0778 90.0328L71.0763 90.0342L69.9264 89.9771L69.925 89.9756L70.0311 87.8366L70.0326 87.8352Z" fill="black"/>
</g>
<path d="M83 64.7895V71.5H76L80.4528 75.9737L75 75.5263L71.1132 74.6316H63.8962L54.9811 77.7632L55.4057 75.5263L55 74L52.434 76.4211L47.7641 79.5526L48.5 75L47 73L43.5 76.4211L38 79L41.3962 73.7368L42 69L39.2736 67.0263L40.5472 63L47.7641 64.7895L83 64.7895Z" fill="#ACAB87"/>
<path d="M39.34 67C39.9126 67.741 41.3156 69.1341 42.3464 68.7784C41.4874 73.669 38.9105 79.0042 37.1926 79.8934C35.4746 80.7826 45.7823 75.892 47.0707 73.2244C49.1322 75.7142 47.9297 78.7078 47.0707 79.8934C49.2181 78.5596 53.6848 75.6253 54.372 74.5582C55.2309 73.2244 56.0899 76.3366 54.372 77.6704C52.654 79.0042 62.9616 73.669 68.9744 74.5582C74.9872 75.4474 79.2821 76.3366 81 75.892C77.9936 73.2244 76.7052 71.8906 75.4167 71.446C74.1282 71.0014 80.141 72.3352 81 71.446" stroke="#363636" stroke-linecap="round"/>
<path d="M59.0647 77C58.0398 77.1434 55.8141 78.1186 55.1113 80.8721C54.2327 84.314 53.3542 89.907 54.672 95.5C55.9898 101.093 56.4291 100.663 56.4291 101.953C56.4291 102.986 55.2577 110.415 54.672 114H65.2145C65.0681 111.132 64.951 104.535 65.6538 101.093C66.5324 96.7907 71.3644 82.593 74 80.8721" stroke="black" stroke-linecap="round"/>
<path d="M73 80.9763C72.2929 81.13 70.7091 80.6073 70.0303 77.2863C69.3515 73.9652 62.3939 74.98 59 75.9025" stroke="black" stroke-linecap="round"/>
<path d="M64.1944 25.0149L73.4886 26.2424L81.8729 29.8048L88.5267 35.3533L90.0347 47.2L93 50.72L92.5764 54.68L89.1875 60.84L86.6458 64.36L69.5 72L69 75L69.2778 75.36L65.8889 77.56L62.5 78L59.5347 76.68L58.2639 73.16L48.0972 70.08L41.3194 65.24L38.7778 61.72L36 60L33.2708 57.76L32 55.5V53.36L33.6944 47.2L45.1319 23L64.1944 25.0149Z" fill="#FFE9D2"/>
<path d="M39.5 63.5V65L34.5 78L35.5 67.5L36.5 56L38 60.5L39.5 63.5Z" fill="#5D98D0"/>
<path d="M92.8978 50.3375L92.4432 54.2772L91.3069 57.2448V55.5905L89.716 53.4017L87.3297 52.0885V47.2732H90.1138L92.8978 50.3375Z" fill="#BD9D7B"/>
<path d="M69.4325 71.7872C65.0243 73.9355 59.6904 73.7879 57.9271 73.1005" stroke="#BD9C7A"/>
<path d="M57.9271 73.1005L63.8928 73.5382L69.8586 71.7872L69.0063 75.2892L67.728 76.1647L65.1712 77.9157L60.91 77.478L58.7793 76.1647L57.9271 73.1005Z" fill="#BD9D7B"/>
<path d="M88.182 52.9639C90.3126 53.4016 91.591 55.1526 91.591 56.9036" stroke="#BD9C7A"/>
<path d="M37.047 42.8956C36.9049 52.5262 36.6208 63.4699 34.0641 79.6667M34.0641 79.6667C36.6208 75.2892 39.6037 64.7832 39.6037 63.9077C39.6037 63.2073 35.9106 74.1219 34.0641 79.6667Z" stroke="#011044"/>
<path d="M37.047 45.9598C37.047 57.7791 34.0641 67.4096 57.9271 73.1004" stroke="black"/>
<path d="M89.0342 47.2732C91.3069 47.8569 93.8068 49.7246 92.4432 54.2772C91.0796 58.8298 88.4661 63.0322 86.4775 64.3455L82.6424 65.6587C79.2334 67.4097 74.546 70.474 69.4325 71.7872M69.4325 74.8515C68.4382 75.8729 66.0235 77.9158 64.319 77.9158C62.1884 77.9158 59.2055 77.9158 58.7794 75.727C58.4385 73.976 57.7851 72.9546 57.501 72.6628" stroke="black"/>
<path d="M34.0641 46.8354C32.3596 49.8997 28.9506 56.466 36.1947 60.4057" stroke="black"/>
<path d="M52 63C54.5385 64.1031 59.6154 64.4709 63 63.1839" stroke="black" stroke-linecap="round"/>
<path d="M56 46V55.5652L47.3261 56L38.2391 55.5652L37 53.8261L37.413 46H56Z" fill="#E3E3E3"/>
<path d="M81.5686 46.8696L82 50.7826V56H71.2157L60.4314 55.1304L60 46L81.5686 46.8696Z" fill="#18181E"/>
<path d="M72.1673 47.7078L73.9325 50.052L76.6728 49.0511L75.0235 51.5008L76.9181 53.0148L74.0041 53.0147L72.3548 55.4644L72.2832 52.5017L69.4986 51.6715L72.2389 50.6706L72.1673 47.7078Z" fill="#E5CA69"/>
<path d="M47.493 46H50.0282L47.0704 55.5833H44.5352L47.493 46Z" fill="white"/>
<path d="M44.9577 46H46.2254L43.2676 55.5833H42L44.9577 46Z" fill="white"/>
<path d="M67.3521 46.8333H69.8873L66.9296 56H64.3944L67.3521 46.8333Z" fill="white"/>
<path d="M70.7324 46.8333H72L69.0423 56H67.7746L70.7324 46.8333Z" fill="white"/>
<path d="M37.2112 46C36.9328 49.031 36.7101 55.1797 38.0462 55.5261C39.3823 55.8725 45.1442 56.3921 56 55.5261V50.33V46" stroke="black" stroke-linecap="round"/>
<path d="M60 46C60 48.8646 60.0856 54.6798 60.4279 55.0235C60.8558 55.4532 81.3949 56.3126 81.8228 55.8829C82.2507 55.4532 81.8228 47.2891 81.3949 46.4297" stroke="black" stroke-linecap="round"/>
<path d="M57.9444 13.6258L67.3148 10.5L72 11.5L77 17L77.537 14.5092L76.2593 7L80.9444 12.7423L82.2222 17.6012L83.0741 15.8344L84.7778 13.184L85.6296 19.3681L83.0741 23.3436L86.0556 25.1104L89.8889 28.2025L91.1667 32.1779L90.3148 37.0368L93.7222 36.1534L93.2963 39.6871L91.5926 42.3374L93.7222 43.2209L95 44.546L92.4445 46.3129L88.6111 47.638L86.9074 60.0061L83.9259 71.4908L79.6667 79L81.3704 68.8405L82.6482 47.638L78.8148 46.3129L71.1482 40.5706L67.3148 34.3865L67.7407 39.6871L70.7222 47.638L73.2778 52.4969L69.0185 49.8466L63.0556 41.0123L61.7778 39.6871L63.4815 47.1963L66.463 52.4969L60.0741 49.8466L54.963 44.546L51.5556 37.9202L49.4259 30.411L48.5741 25.1104L46.8704 28.2025L45.1667 34.3865L43.8889 45.4294L40.9074 43.6626L39.2037 37.9202L37.5 41.454L35.3704 48.5215L34.0926 46.3129L32.8148 49.4049L28.1296 44.546H30.2593L26 41.0123L30.2593 38.8037L34.9444 33.0613L31.963 32.1779L27.2778 28.6442L34.0926 28.2025L36.2222 26.8773L39.6296 21.5767L45.5926 16.7178L42.6111 14.9509L40.9074 13.184L45.1667 14L49.4259 14.9509L57.9444 13.6258Z" fill="#D9D8BE"/>
<path d="M77.1027 17.0683C75.5403 14.2959 71.2222 9.10124 66.4496 10.502C60.4838 12.253 50.683 18.3816 40.456 12.2531C42.1605 14.4418 42.1605 15.755 45.5695 17.0683C42.5866 19.2571 39.1776 21.4458 35.7686 27.5743C33.2118 28.8876 30.2289 28.8876 27.2461 28.8876C30.2289 31.0764 32.7857 33.2651 34.9163 33.2651C32.7857 35.8916 32.7857 36.3294 31.5073 37.6426C30.2289 38.9559 27.2461 40.7069 25.9677 40.7069C24.945 40.7069 28.3824 43.3334 30.2289 44.6466H28.0983L32.3596 49.0241" stroke="#535353" stroke-linecap="round"/>
<path d="M77.5288 17.506C77.3868 15.0254 76.7618 9.45141 75.3982 7C79.6595 10.0643 82.6424 15.3173 81.364 18.8193C84.3469 14.4418 84.3469 14.004 84.3469 12.6908C85.6252 16.6305 86.9036 19.6948 82.6424 23.6345" stroke="#494949" stroke-linecap="round"/>
<path d="M82.6424 23.6345C85.9093 25.6774 94.1477 28.4498 89.8865 37.2048C92.0171 37.2048 92.8694 36.7671 93.7216 36.3293C94.1477 38.0803 92.4432 42.4578 91.1649 42.8956C93.2103 42.8956 94.5739 43.7711 95 44.2088C94.1477 44.9384 92.1876 46.4851 91.1649 46.8353" stroke="#484848" stroke-linecap="round"/>
<path d="M83.4946 39.3936C82.3583 52.3802 82.2162 76.1646 77.955 81.8554C83.4946 73.5381 87.7559 64.3454 89.4604 41.1446" stroke="#505050" stroke-linecap="round"/>
<path d="M35.3425 36.3293C34.6323 37.3507 33.2971 40.1815 33.638 43.3333C33.9789 46.4851 34.9163 48.4404 35.3425 49.0241C36.0527 45.9598 37.814 39.4811 39.1776 38.0803C39.1776 40.7068 42.1605 45.9598 43.865 45.522C43.865 39.8313 46.4217 27.5743 48.5524 25.3855C49.8307 33.265 52.3875 49.0241 66.8757 52.5261C62.6145 47.273 61.7622 40.7068 61.7622 38.9558C64.1769 43.4792 69.9438 52.5261 73.6937 52.5261C70.7109 49.0241 67.728 43.3333 66.8757 33.265C70.7109 39.8313 71.5631 43.3333 82.6424 48.1486" stroke="#666666" stroke-linecap="round"/>
<path d="M40 35C42.8966 33.9234 47.0345 31.3397 52 34.5694" stroke="#0A093B" stroke-linecap="round"/>
<path d="M63 33.4308C66.75 30.8693 75.3333 32.1785 78 34" stroke="#0A093B" stroke-linecap="round"/>
<path d="M54 104C53.7778 106.7 53.0667 112.28 52 113" stroke="#F2D367"/>
<path d="M68.0427 103C67.7295 110.785 69.2171 113.577 70 114" stroke="#F2D367"/>
<path d="M86 101C84.3077 103.074 80.7385 108.378 80 113" stroke="#F2D367"/>
<path d="M43.6157 101C45.0519 102.974 42 107.938 42 112" stroke="#F2D367"/>
</g>
<defs>
<clipPath id="clip0">
<rect width="112" height="112" rx="56" fill="white"/>
</clipPath>
</defs>
</svg>
