<svg width="165" height="178" viewBox="0 0 165 178" fill="none" xmlns="http://www.w3.org/2000/svg">
<g filter="url(#filter0_d)">
<path d="M135.291 129.646L101.791 150.646C92.3338 155.125 86.8406 153.163 79.8854 150.679L79.791 150.646C72.791 148.146 55.2042 140.449 47.2535 134.615C39.7161 129.084 26.791 117.115 24.291 112.115C21.791 107.115 20.791 77.1456 20.291 67.6456C19.891 60.0456 22.791 56.4789 24.291 55.6456C39.6244 44.6456 72.6535 22.7146 78.2535 19.1146C83.8535 15.5146 89.5869 18.1146 92.2535 19.6146C107.254 27.6146 138.991 43.3455 145.791 48.1455C154.291 54.1455 152.791 62.6455 154.791 80.1455C156.391 94.1455 154.124 104.979 152.791 108.646L135.291 129.646Z" fill="#064595"/>
</g>
<g filter="url(#filter1_i)">
<path d="M138.695 61.1147L146.695 73.1147" stroke="#EACEA4" stroke-width="5" stroke-linecap="round"/>
</g>
<g filter="url(#filter2_i)">
<path d="M141.195 80.6147C138.395 75.0147 135.028 76.948 133.695 78.6147C133.236 79.1147 130.695 85.1147 133.695 91.6147C136.695 98.1147 139.195 97.6147 142.195 96.6147C145.195 95.6147 144.695 87.6147 141.195 80.6147Z" stroke="#EACEA4" stroke-width="5" stroke-linecap="round"/>
</g>
<path d="M65.7535 91.6458C62.9535 93.6458 50.791 122.146 48.291 135.146C44.791 134.146 39.291 128.646 34.791 124.646C30.291 120.646 25.791 114.646 23.791 111.646C21.791 108.646 20.291 71.6457 20.291 65.6457C20.291 60.8458 20.5524 59.9002 23.291 56.1457L47.2708 38.166L72.791 21.1458C75.1243 19.3124 80.891 15.7458 85.291 16.1458C90.791 16.6458 109.826 27.2633 130.326 38.2633C129.826 49.7633 119.754 91.6458 114.754 91.6458C109.754 91.6458 69.2535 89.1458 65.7535 91.6458Z" fill="#2D9ADF"/>
<path d="M40.5186 43.9674C46.4533 65.5255 65.4664 90.5386 65.0505 92.6441C62.0468 107.85 52.6503 137.15 48.8752 135.828C42.2017 133.49 23.6225 114.021 22.3387 110.2C21.0549 106.379 19.0927 64.1511 20.4556 60.3905C22.6962 54.2078 40.1205 42.5216 40.5186 43.9674Z" fill="#3D87B6"/>
<g filter="url(#filter3_i)">
<path d="M76.2535 65.3333C76.2535 63.7333 74.9202 48.3333 74.2535 40.8333" stroke="#F2DEC0" stroke-width="9" stroke-linecap="round"/>
</g>
<g filter="url(#filter4_i)">
<path d="M88.7535 43.3333C90.2535 41.1666 94.3535 37.1333 98.7535 38.3333C104.254 39.8333 108.754 45.4333 101.754 50.3333C91.7535 57.3333 87.7535 64.3333 91.2535 64.3333C95.7535 64.3333 102.92 63.9999 108.754 62.8333" stroke="#F2DEC0" stroke-width="9" stroke-linecap="round"/>
</g>
<g filter="url(#filter5_i)">
<path d="M87.8767 111.423C95.877 111.194 99.6111 111.193 101.288 115.602C103.487 121.382 96.4148 124.263 90.9148 124.256C85.4148 124.248 82.79 127.776 82.7879 129.276C82.7829 132.776 86.1388 136.015 91.1388 136.022C96.1388 136.029 100.043 132.627 100.047 129.627C100.054 124.627 93.1734 125.721 85.8418 121.725C83.051 120.203 80.3744 112.913 87.8767 111.423Z" stroke="#EACEA4" stroke-width="4"/>
</g>
<g filter="url(#filter6_i)">
<path d="M38.8766 105.49L31.4373 92.5461C33.8361 92.6977 40.5359 92.7188 45.8018 88.8954" stroke="#F2DEC0" stroke-width="4" stroke-linecap="round" stroke-linejoin="round"/>
</g>
<defs>
<filter id="filter0_d" x="16.2535" y="17.2952" width="143.088" height="144.027" filterUnits="userSpaceOnUse" color-interpolation-filters="sRGB">
<feFlood flood-opacity="0" result="BackgroundImageFix"/>
<feColorMatrix in="SourceAlpha" type="matrix" values="0 0 0 0 0 0 0 0 0 0 0 0 0 0 0 0 0 0 127 0" result="hardAlpha"/>
<feOffset dy="4"/>
<feGaussianBlur stdDeviation="2"/>
<feComposite in2="hardAlpha" operator="out"/>
<feColorMatrix type="matrix" values="0 0 0 0 0 0 0 0 0 0 0 0 0 0 0 0 0 0 0.25 0"/>
<feBlend mode="normal" in2="BackgroundImageFix" result="effect1_dropShadow"/>
<feBlend mode="normal" in="SourceGraphic" in2="effect1_dropShadow" result="shape"/>
</filter>
<filter id="filter1_i" x="136.194" y="58.6145" width="13.0005" height="17.0005" filterUnits="userSpaceOnUse" color-interpolation-filters="sRGB">
<feFlood flood-opacity="0" result="BackgroundImageFix"/>
<feBlend mode="normal" in="SourceGraphic" in2="BackgroundImageFix" result="shape"/>
<feColorMatrix in="SourceAlpha" type="matrix" values="0 0 0 0 0 0 0 0 0 0 0 0 0 0 0 0 0 0 127 0" result="hardAlpha"/>
<feOffset dx="1" dy="2"/>
<feComposite in2="hardAlpha" operator="arithmetic" k2="-1" k3="1"/>
<feColorMatrix type="matrix" values="0 0 0 0 0.823529 0 0 0 0 0.721569 0 0 0 0 0.568627 0 0 0 1 0"/>
<feBlend mode="normal" in2="shape" result="effect1_innerShadow"/>
</filter>
<filter id="filter2_i" x="129.754" y="74.3896" width="16.9108" height="25.3172" filterUnits="userSpaceOnUse" color-interpolation-filters="sRGB">
<feFlood flood-opacity="0" result="BackgroundImageFix"/>
<feBlend mode="normal" in="SourceGraphic" in2="BackgroundImageFix" result="shape"/>
<feColorMatrix in="SourceAlpha" type="matrix" values="0 0 0 0 0 0 0 0 0 0 0 0 0 0 0 0 0 0 127 0" result="hardAlpha"/>
<feOffset dx="1" dy="2"/>
<feComposite in2="hardAlpha" operator="arithmetic" k2="-1" k3="1"/>
<feColorMatrix type="matrix" values="0 0 0 0 0.823529 0 0 0 0 0.721569 0 0 0 0 0.568627 0 0 0 1 0"/>
<feBlend mode="normal" in2="shape" result="effect1_innerShadow"/>
</filter>
<filter id="filter3_i" x="69.7533" y="36.333" width="11.0003" height="33.5003" filterUnits="userSpaceOnUse" color-interpolation-filters="sRGB">
<feFlood flood-opacity="0" result="BackgroundImageFix"/>
<feBlend mode="normal" in="SourceGraphic" in2="BackgroundImageFix" result="shape"/>
<feColorMatrix in="SourceAlpha" type="matrix" values="0 0 0 0 0 0 0 0 0 0 0 0 0 0 0 0 0 0 127 0" result="hardAlpha"/>
<feOffset dx="2" dy="1"/>
<feComposite in2="hardAlpha" operator="arithmetic" k2="-1" k3="1"/>
<feColorMatrix type="matrix" values="0 0 0 0 0.916667 0 0 0 0 0.806667 0 0 0 0 0.641667 0 0 0 1 0"/>
<feBlend mode="normal" in2="shape" result="effect1_innerShadow"/>
</filter>
<filter id="filter4_i" x="84.2532" y="33.6123" width="29.0013" height="35.2211" filterUnits="userSpaceOnUse" color-interpolation-filters="sRGB">
<feFlood flood-opacity="0" result="BackgroundImageFix"/>
<feBlend mode="normal" in="SourceGraphic" in2="BackgroundImageFix" result="shape"/>
<feColorMatrix in="SourceAlpha" type="matrix" values="0 0 0 0 0 0 0 0 0 0 0 0 0 0 0 0 0 0 127 0" result="hardAlpha"/>
<feOffset dx="2" dy="1"/>
<feComposite in2="hardAlpha" operator="arithmetic" k2="-1" k3="1"/>
<feColorMatrix type="matrix" values="0 0 0 0 0.916667 0 0 0 0 0.806667 0 0 0 0 0.641667 0 0 0 1 0"/>
<feBlend mode="normal" in2="shape" result="effect1_innerShadow"/>
</filter>
<filter id="filter5_i" x="80.7754" y="109.329" width="22.9364" height="28.7105" filterUnits="userSpaceOnUse" color-interpolation-filters="sRGB">
<feFlood flood-opacity="0" result="BackgroundImageFix"/>
<feBlend mode="normal" in="SourceGraphic" in2="BackgroundImageFix" result="shape"/>
<feColorMatrix in="SourceAlpha" type="matrix" values="0 0 0 0 0 0 0 0 0 0 0 0 0 0 0 0 0 0 127 0" result="hardAlpha"/>
<feOffset dx="2" dy="1"/>
<feComposite in2="hardAlpha" operator="arithmetic" k2="-1" k3="1"/>
<feColorMatrix type="matrix" values="0 0 0 0 0.825 0 0 0 0 0.721875 0 0 0 0 0.567187 0 0 0 1 0"/>
<feBlend mode="normal" in2="shape" result="effect1_innerShadow"/>
</filter>
<filter id="filter6_i" x="29.4374" y="86.8953" width="18.3646" height="20.5955" filterUnits="userSpaceOnUse" color-interpolation-filters="sRGB">
<feFlood flood-opacity="0" result="BackgroundImageFix"/>
<feBlend mode="normal" in="SourceGraphic" in2="BackgroundImageFix" result="shape"/>
<feColorMatrix in="SourceAlpha" type="matrix" values="0 0 0 0 0 0 0 0 0 0 0 0 0 0 0 0 0 0 127 0" result="hardAlpha"/>
<feOffset dx="2" dy="2"/>
<feComposite in2="hardAlpha" operator="arithmetic" k2="-1" k3="1"/>
<feColorMatrix type="matrix" values="0 0 0 0 0.917647 0 0 0 0 0.807843 0 0 0 0 0.643137 0 0 0 1 0"/>
<feBlend mode="normal" in2="shape" result="effect1_innerShadow"/>
</filter>
</defs>
</svg>
