<svg width="38" height="38" viewBox="0 0 38 38" fill="none" xmlns="http://www.w3.org/2000/svg">
<g clip-path="url(#clip0_15:26)">
<path d="M37.0256 19C37.0256 29.4934 30.3385 38 19.5444 38C8.75034 38 0 29.4934 0 19C0 8.50659 8.75034 0 19.5444 0C30.3385 0 37.0256 8.50659 37.0256 19Z" fill="white"/>
<path d="M19 3C10.1613 3 3 10.1613 3 19C3 27.8387 10.1613 35 19 35C27.8387 35 35 27.8387 35 19C35 10.1613 27.8387 3 19 3ZM31.9032 19C31.9032 20.4516 31.6516 21.8516 31.2065 23.1548H29.8968C29.6194 23.1548 29.3548 23.0452 29.1613 22.8452L27.0968 20.7419C26.8065 20.4452 26.8065 19.9613 27.1032 19.6645L27.9097 18.8581V18.2968C27.9097 18.1032 27.8323 17.9161 27.6968 17.7806L27.0903 17.1742C26.9548 17.0387 26.7677 16.9613 26.5742 16.9613H25.5419C25.1419 16.9613 24.8129 16.6323 24.8129 16.2323C24.8129 16.0387 24.8903 15.8516 25.0258 15.7161L25.6323 15.1097C25.7677 14.9742 25.9548 14.8968 26.1484 14.8968H28.2129C28.6129 14.8968 28.9419 14.5677 28.9419 14.1677V13.5613C28.9419 13.1613 28.6129 12.8323 28.2129 12.8323H25.8452C25.2774 12.8323 24.8129 13.2968 24.8129 13.8645V14.1548C24.8129 14.6 24.529 14.9935 24.1097 15.1355L22.071 15.8129C21.8581 15.8839 21.7161 16.0774 21.7161 16.3032V16.4452C21.7161 16.729 21.4839 16.9613 21.2 16.9613H20.1677C19.8839 16.9613 19.6516 16.729 19.6516 16.4452C19.6516 16.1613 19.4194 15.929 19.1355 15.929H18.9355C18.7419 15.929 18.5613 16.0387 18.471 16.2129L17.8645 17.4194C17.6903 17.7677 17.3355 17.9871 16.9419 17.9871H15.5161C14.9484 17.9871 14.4839 17.5226 14.4839 16.9548V15.3226C14.4839 15.0516 14.5935 14.7871 14.7871 14.5935L16.0839 13.2968C16.3806 13 16.5484 12.5935 16.5484 12.1677C16.5484 11.9484 16.6903 11.7484 16.9032 11.6774L19.4839 10.8194C19.5935 10.7806 19.6903 10.7226 19.7677 10.6452L21.4968 8.91613C21.6323 8.78064 21.7097 8.59355 21.7097 8.4C21.7097 8 21.3806 7.67097 20.9806 7.67097H19.6452L18.6129 8.70323V9.21935C18.6129 9.50323 18.3806 9.73548 18.0968 9.73548H17.0645C16.7806 9.73548 16.5484 9.50323 16.5484 9.21935V7.92903C16.5484 7.76774 16.6258 7.6129 16.7548 7.51613L18.6194 6.11613C18.7419 6.10968 18.8645 6.09677 18.9871 6.09677C26.1161 6.09677 31.9032 11.8839 31.9032 19ZM11.3935 12.1032C11.3935 11.9097 11.471 11.7226 11.6065 11.5871L13.2452 9.94839C13.3806 9.8129 13.5677 9.73548 13.7613 9.73548C14.1613 9.73548 14.4903 10.0645 14.4903 10.4645V11.4968C14.4903 11.6903 14.4129 11.8774 14.2774 12.0129L13.671 12.6194C13.5355 12.7548 13.3484 12.8323 13.1548 12.8323H12.1226C11.7226 12.8323 11.3935 12.5032 11.3935 12.1032ZM19.6516 31.871V31.4129C19.6516 30.8452 19.1871 30.3806 18.6194 30.3806H17.3161C16.6194 30.3806 15.5935 30.0387 15.0323 29.6194L13.6 28.5419C12.8581 27.9871 12.4258 27.1161 12.4258 26.1935V24.6516C12.4258 23.6194 12.9677 22.6645 13.8516 22.1355L16.6194 20.4774C17.0774 20.2065 17.6 20.0581 18.129 20.0581H20.1419C20.8452 20.0581 21.5226 20.3097 22.0516 20.7613L24.8387 23.1548H26.0194C26.5677 23.1548 27.0903 23.3742 27.4774 23.7613L28.5935 24.8774C28.8129 25.0968 29.1161 25.2194 29.4258 25.2194H30.2903C28.2 29.0194 24.2387 31.6387 19.6516 31.871Z" fill="black"/>
</g>
<defs>
<clipPath id="clip0_15:26">
<rect width="37.0256" height="38" fill="white"/>
</clipPath>
</defs>
</svg>
