<svg width="38" height="38" viewBox="0 0 38 38" fill="none" xmlns="http://www.w3.org/2000/svg">
<g clip-path="url(#clip0_15:26)">
<path d="M37.0256 19C37.0256 29.4934 30.3385 38 19.5444 38C8.75034 38 0 29.4934 0 19C0 8.50659 8.75034 0 19.5444 0C30.3385 0 37.0256 8.50659 37.0256 19Z" fill="white"/>
<path d="M19 3C10.1632 3 3 10.1632 3 19C3 27.8368 10.1632 35 19 35C27.8368 35 35 27.8368 35 19C35 10.1632 27.8368 3 19 3ZM24.309 26.071C24.0574 26.3213 23.7935 26.5839 23.5794 26.7987C23.3865 26.9923 23.2503 27.231 23.1813 27.4897C23.0839 27.8548 23.0052 28.2239 22.8735 28.5781L21.7516 31.6006C20.8639 31.7942 19.9452 31.9032 19 31.9032V30.1368C19.109 29.3226 18.5071 27.7974 17.54 26.8303C17.1529 26.4432 16.9355 25.9181 16.9355 25.3703V23.3052C16.9355 22.5542 16.531 21.8639 15.8735 21.5006C14.9465 20.9877 13.6277 20.271 12.7245 19.8161C11.9839 19.4432 11.2987 18.9684 10.6826 18.4129L10.631 18.3665C10.1904 17.9687 9.79917 17.5195 9.46581 17.0284C8.86065 16.14 7.87484 14.6787 7.23419 13.729C8.55484 10.7935 10.9348 8.43613 13.8923 7.15548L15.4413 7.93032C16.1277 8.27355 16.9355 7.77484 16.9355 7.0071V6.27806C17.451 6.19484 17.9755 6.14194 18.509 6.12194L20.3348 7.94774C20.7381 8.35097 20.7381 9.00452 20.3348 9.40774L20.0323 9.70968L19.3652 10.3768C19.1639 10.5781 19.1639 10.9052 19.3652 11.1065L19.6677 11.409C19.869 11.6103 19.869 11.9374 19.6677 12.1387L19.1516 12.6548C19.0547 12.7516 18.9234 12.8059 18.7865 12.8058H18.2065C18.0723 12.8058 17.9432 12.8581 17.8465 12.9523L17.2065 13.5748C17.128 13.6512 17.0759 13.7506 17.0575 13.8585C17.0392 13.9665 17.0557 14.0775 17.1045 14.1755L18.1103 16.1877C18.2819 16.531 18.0323 16.9348 17.649 16.9348H17.2852C17.1606 16.9348 17.0406 16.8897 16.9471 16.8084L16.3484 16.2884C16.2129 16.1709 16.0492 16.0906 15.8733 16.0555C15.6974 16.0205 15.5154 16.0318 15.3452 16.0884L13.3342 16.7587C13.1807 16.8099 13.0471 16.9081 12.9525 17.0394C12.8579 17.1707 12.807 17.3285 12.8071 17.4903C12.8071 17.7826 12.9723 18.049 13.2335 18.18L13.9484 18.5374C14.5555 18.8413 15.2252 18.9994 15.9039 18.9994C16.5826 18.9994 17.3613 20.76 17.9684 21.0639H22.2748C22.8226 21.0639 23.3471 21.2813 23.7348 21.6684L24.6181 22.5516C24.987 22.9207 25.1943 23.4213 25.1942 23.9432C25.1941 24.3387 25.1158 24.7303 24.9639 25.0954C24.812 25.4606 24.5894 25.7921 24.309 26.071ZM29.9032 20.1774C29.5297 20.0839 29.2039 19.8548 28.9903 19.5342L27.8303 17.7942C27.6606 17.54 27.57 17.2412 27.57 16.9355C27.57 16.6298 27.6606 16.331 27.8303 16.0768L29.0942 14.1813C29.2439 13.9574 29.449 13.7755 29.6903 13.6555L30.5277 13.2368C31.4 14.9735 31.9032 16.9271 31.9032 19C31.9032 19.5594 31.8555 20.1071 31.7858 20.6477L29.9032 20.1774Z" fill="black"/>
</g>
<defs>
<clipPath id="clip0_15:26">
<rect width="37.0256" height="38" fill="white"/>
</clipPath>
</defs>
</svg>
