<svg width="38" height="38" viewBox="0 0 38 38" fill="none" xmlns="http://www.w3.org/2000/svg">
<g clip-path="url(#clip0)">
<path d="M37.0256 19C37.0256 29.4934 30.3385 38 19.5444 38C8.75034 38 0 29.4934 0 19C0 8.50659 8.75034 0 19.5444 0C30.3385 0 37.0256 8.50659 37.0256 19Z" fill="white"/>
<g clip-path="url(#clip1)">
<path d="M18.8034 3.5C10.3443 3.5 3.48718 10.3571 3.48718 18.8162C3.48718 27.2754 10.3443 34.1325 18.8034 34.1325C27.2626 34.1325 34.1197 27.2754 34.1197 18.8162C34.1197 10.3571 27.2626 3.5 18.8034 3.5ZM28.6849 16.8091V17.2371C28.6849 17.5996 28.4798 17.9312 28.1556 18.093L27.2051 18.5686C27.0542 18.6441 26.8859 18.6784 26.7175 18.6679C26.549 18.6573 26.3864 18.6024 26.246 18.5087L25.1214 17.7589C25 17.6781 24.8619 17.6261 24.7174 17.6067C24.5729 17.5873 24.4259 17.6011 24.2876 17.6471L24.124 17.7015C23.5249 17.901 23.2803 18.6149 23.6305 19.1405L24.4482 20.367C24.6254 20.6332 24.9244 20.7931 25.2443 20.7931H25.7513C26.28 20.7931 26.7086 21.2218 26.7086 21.7504V22.4508C26.7086 22.6577 26.6413 22.8596 26.5171 23.0251L25.3598 24.5679C25.2721 24.6852 25.2122 24.8211 25.185 24.965L24.9194 26.3749C24.8811 26.5781 24.778 26.7634 24.6254 26.9036C24.0402 27.4395 23.5218 28.0442 23.0815 28.7045L22.2767 29.9119C22.1202 30.1466 21.9082 30.3391 21.6594 30.4723C21.4107 30.6055 21.1329 30.6752 20.8507 30.6752C20.2016 30.6752 19.6081 30.3084 19.3179 29.7278C18.9795 29.0511 18.8034 28.3049 18.8034 27.5484V25.7024C18.8034 25.1737 18.3748 24.7451 17.8462 24.7451H16.2478C15.3529 24.7451 14.4951 24.3894 13.8621 23.757C13.2295 23.1241 12.8741 22.266 12.8739 21.3712V20.5029C12.8739 19.4412 13.3742 18.4414 14.2234 17.804L15.9267 16.5262C16.5108 16.0882 17.2211 15.8514 17.9511 15.8512H18.0061C18.5298 15.8512 19.0468 15.9729 19.5149 16.2075L20.424 16.6621C20.6513 16.7757 20.9137 16.7942 21.1546 16.714L24.0764 15.74C24.4673 15.6097 24.7311 15.2441 24.7311 14.8322C24.7311 14.3035 24.3024 13.8749 23.7738 13.8749H23.1506C22.8968 13.8749 22.6535 13.7742 22.4738 13.5945L22.0464 13.1671C21.9575 13.0782 21.852 13.0077 21.7358 12.9596C21.6197 12.9115 21.4952 12.8867 21.3695 12.8868H15.8081C15.2795 12.8868 14.8508 12.4581 14.8508 11.9295V11.6578C14.8508 11.2186 15.1498 10.8357 15.5759 10.7289L16.4683 10.5059C16.6993 10.4479 16.9006 10.3065 17.0328 10.1082L17.5318 9.36031C17.7091 9.09413 18.008 8.93418 18.3279 8.93418H19.8231C20.3517 8.93418 20.7803 8.50557 20.7803 7.97691V6.63674C25.6729 7.42973 29.6026 11.0976 30.7803 15.8518H29.6421C29.1135 15.8518 28.6849 16.2804 28.6849 16.8091Z" fill="black"/>
</g>
</g>
<defs>
<clipPath id="clip0">
<rect width="37.0256" height="38" fill="white"/>
</clipPath>
<clipPath id="clip1">
<rect width="31.1795" height="32" fill="white" transform="translate(3 3)"/>
</clipPath>
</defs>
</svg>
