<svg width="111" height="116" viewBox="0 0 111 116" fill="none" xmlns="http://www.w3.org/2000/svg">
<g filter="url(#filter0_d)">
<path d="M103.152 54.7861C103.152 80.5643 83.3827 101.462 57.8055 101.462C32.2283 101.462 9.08179 80.5643 9.08179 54.7861C9.08179 29.0078 32.2283 4.70703 57.8055 4.70703C83.3827 4.70703 103.152 29.0078 103.152 54.7861Z" fill="#E9E5E5"/>
</g>
<path d="M103.82 53.2003C103.82 76.9776 80.4192 98.6991 59.3749 96.7421C35.0067 97.2314 14.9072 76.9776 14.9072 53.2003C14.9072 29.423 34.811 10.1477 59.3637 10.1477C83.9163 10.1477 103.82 29.423 103.82 53.2003Z" fill="white"/>
<g filter="url(#filter1_i)">
<path d="M43.6617 76.6219C43.6617 77.0027 43.2348 77.3073 42.6965 77.3073C42.0839 77.3644 41.657 77.0598 41.657 76.6219C41.657 76.2411 42.0839 75.9365 42.6222 75.9365C43.1791 75.8794 43.6617 76.184 43.6617 76.6219ZM37.8888 75.7652C37.7589 76.1459 38.1301 76.5838 38.687 76.6981C39.1696 76.8884 39.7265 76.6981 39.8379 76.3173C39.9493 75.9365 39.5966 75.4986 39.0397 75.3273C38.5571 75.194 38.0188 75.3844 37.8888 75.7652ZM46.0934 75.4415C45.5551 75.5748 45.1839 75.9365 45.2395 76.3744C45.2952 76.7552 45.7779 77.0027 46.3347 76.8694C46.873 76.7361 47.2443 76.3744 47.1886 75.9936C47.1329 75.6319 46.6317 75.3844 46.0934 75.4415ZM58.3075 2.48584C32.5614 2.48584 12.8667 22.5334 12.8667 48.9399C12.8667 70.0536 25.8233 88.1212 44.33 94.4801C46.706 94.9179 47.5413 93.4139 47.5413 92.1764C47.5413 90.996 47.4856 84.4848 47.4856 80.4867C47.4856 80.4867 34.4919 83.3425 31.7632 74.8132C31.7632 74.8132 29.6471 69.273 26.6029 67.8451C26.6029 67.8451 22.3521 64.8561 26.8999 64.9132C26.8999 64.9132 31.5219 65.294 34.065 69.8251C38.1301 77.174 44.9425 75.0608 47.597 73.8042C48.0239 70.758 49.2305 68.6448 50.567 67.3882C40.1906 66.2078 29.7214 64.6657 29.7214 46.3506C29.7214 41.115 31.1321 38.4877 34.1021 35.1369C33.6195 33.8994 32.0417 28.7971 34.5847 22.2098C38.4643 20.9723 47.3928 27.3502 47.3928 27.3502C51.1053 26.284 55.0962 25.7319 59.05 25.7319C63.0038 25.7319 66.9947 26.284 70.7072 27.3502C70.7072 27.3502 79.6357 20.9532 83.5152 22.2098C86.0583 28.8161 84.4805 33.8994 83.9979 35.1369C86.9678 38.5068 88.787 41.1341 88.787 46.3506C88.787 64.7228 77.8537 66.1888 67.4773 67.3882C69.1851 68.8923 70.6329 71.748 70.6329 76.2221C70.6329 82.6381 70.5772 90.5771 70.5772 92.1383C70.5772 93.3758 71.4311 94.8799 73.7885 94.442C92.351 88.1212 104.936 70.0536 104.936 48.9399C104.936 22.5334 84.0536 2.48584 58.3075 2.48584ZM30.9094 68.1497C30.6681 68.3401 30.7237 68.778 31.0393 69.1398C31.3363 69.4444 31.7632 69.5777 32.0045 69.3302C32.2459 69.1398 32.1902 68.7019 31.8746 68.3401C31.5776 68.0355 31.1507 67.9023 30.9094 68.1497ZM28.9046 66.6076C28.7747 66.8551 28.9603 67.1598 29.3316 67.3501C29.6286 67.5405 29.9998 67.4834 30.1297 67.2169C30.2597 66.9694 30.0741 66.6647 29.7028 66.4744C29.3316 66.3601 29.0346 66.4172 28.9046 66.6076ZM34.9188 73.3853C34.6218 73.6328 34.7332 74.204 35.1602 74.5658C35.5871 75.0036 36.1254 75.0608 36.3667 74.7561C36.608 74.5086 36.4967 73.9375 36.1254 73.5757C35.717 73.1378 35.1602 73.0807 34.9188 73.3853ZM32.8027 70.5867C32.5057 70.7771 32.5057 71.2721 32.8027 71.71C33.0997 72.1479 33.6009 72.3382 33.8422 72.1478C34.1392 71.9003 34.1392 71.4053 33.8422 70.9675C33.5823 70.5296 33.0997 70.3392 32.8027 70.5867Z" fill="#333333"/>
</g>
<defs>
<filter id="filter0_d" x="5.08179" y="4.70703" width="102.07" height="104.755" filterUnits="userSpaceOnUse" color-interpolation-filters="sRGB">
<feFlood flood-opacity="0" result="BackgroundImageFix"/>
<feColorMatrix in="SourceAlpha" type="matrix" values="0 0 0 0 0 0 0 0 0 0 0 0 0 0 0 0 0 0 127 0" result="hardAlpha"/>
<feOffset dy="4"/>
<feGaussianBlur stdDeviation="2"/>
<feComposite in2="hardAlpha" operator="out"/>
<feColorMatrix type="matrix" values="0 0 0 0 0 0 0 0 0 0 0 0 0 0 0 0 0 0 0.25 0"/>
<feBlend mode="normal" in2="BackgroundImageFix" result="effect1_dropShadow"/>
<feBlend mode="normal" in="SourceGraphic" in2="effect1_dropShadow" result="shape"/>
</filter>
<filter id="filter1_i" x="12.8667" y="2.48584" width="92.0696" height="92.0718" filterUnits="userSpaceOnUse" color-interpolation-filters="sRGB">
<feFlood flood-opacity="0" result="BackgroundImageFix"/>
<feBlend mode="normal" in="SourceGraphic" in2="BackgroundImageFix" result="shape"/>
<feColorMatrix in="SourceAlpha" type="matrix" values="0 0 0 0 0 0 0 0 0 0 0 0 0 0 0 0 0 0 127 0" result="hardAlpha"/>
<feOffset dx="2" dy="3"/>
<feComposite in2="hardAlpha" operator="arithmetic" k2="-1" k3="1"/>
<feColorMatrix type="matrix" values="0 0 0 0 1 0 0 0 0 0.95 0 0 0 0 0.95 0 0 0 0.25 0"/>
<feBlend mode="normal" in2="shape" result="effect1_innerShadow"/>
</filter>
</defs>
</svg>
