<svg width="103" height="129" viewBox="0 0 103 129" fill="none" xmlns="http://www.w3.org/2000/svg">
<g clip-path="url(#clip0)">
<g filter="url(#filter0_d)">
<path d="M8.32747 17.8112C8.43053 14.0712 11.4563 11.0735 15.1971 11.0052L90.3881 9.63307C92.5722 9.59322 94.6496 10.5752 96.0051 12.2882L97.6835 14.4093C98.6619 15.6458 99.1942 17.1763 99.1942 18.753V97.5698C99.1942 101.436 96.0602 104.57 92.1942 104.57H53.8529H15.723C13.2514 104.57 10.9629 103.266 9.70216 101.141L7.22651 96.9662C6.55213 95.829 6.21355 94.5242 6.24997 93.2026L8.32747 17.8112Z" fill="#96CAE3"/>
</g>
<rect x="11.1942" y="16.5698" width="77" height="81" fill="white"/>
<g filter="url(#filter1_i)">
<path d="M89.7656 8.56982L12.6027 8.56982C9.06698 8.56982 6.19421 11.5151 6.19421 15.1308L6.19421 93.0089C6.19421 96.6245 9.06698 99.5698 12.6027 99.5698H89.7656C93.3014 99.5698 96.1942 96.6245 96.1942 93.0089V15.1308C96.1942 11.5151 93.3014 8.56982 89.7656 8.56982ZM33.3951 86.5698H20.0558V43.1417H33.4152V86.5698H33.3951ZM26.7255 37.2104C22.4464 37.2104 18.9911 33.6964 18.9911 29.3901C18.9911 25.0839 22.4464 21.5698 26.7255 21.5698C30.9844 21.5698 34.4598 25.0839 34.4598 29.3901C34.4598 33.7167 31.0045 37.2104 26.7255 37.2104V37.2104ZM83.3973 86.5698H70.058V65.4448C70.058 60.4073 69.9576 53.9276 63.1272 53.9276C56.1764 53.9276 55.1116 59.412 55.1116 65.0792V86.5698H41.7723V43.1417H54.5692V49.0729H54.75C56.538 45.6604 60.8973 42.0651 67.3862 42.0651C80.8862 42.0651 83.3973 51.0636 83.3973 62.7636V86.5698V86.5698Z" fill="#0E76A8"/>
</g>
</g>
<defs>
<filter id="filter0_d" x="2.24731" y="9.63184" width="100.947" height="102.938" filterUnits="userSpaceOnUse" color-interpolation-filters="sRGB">
<feFlood flood-opacity="0" result="BackgroundImageFix"/>
<feColorMatrix in="SourceAlpha" type="matrix" values="0 0 0 0 0 0 0 0 0 0 0 0 0 0 0 0 0 0 127 0" result="hardAlpha"/>
<feOffset dy="4"/>
<feGaussianBlur stdDeviation="2"/>
<feComposite in2="hardAlpha" operator="out"/>
<feColorMatrix type="matrix" values="0 0 0 0 0 0 0 0 0 0 0 0 0 0 0 0 0 0 0.25 0"/>
<feBlend mode="normal" in2="BackgroundImageFix" result="effect1_dropShadow"/>
<feBlend mode="normal" in="SourceGraphic" in2="effect1_dropShadow" result="shape"/>
</filter>
<filter id="filter1_i" x="6.19421" y="8.56982" width="90" height="91" filterUnits="userSpaceOnUse" color-interpolation-filters="sRGB">
<feFlood flood-opacity="0" result="BackgroundImageFix"/>
<feBlend mode="normal" in="SourceGraphic" in2="BackgroundImageFix" result="shape"/>
<feColorMatrix in="SourceAlpha" type="matrix" values="0 0 0 0 0 0 0 0 0 0 0 0 0 0 0 0 0 0 127 0" result="hardAlpha"/>
<feOffset dx="3" dy="2"/>
<feComposite in2="hardAlpha" operator="arithmetic" k2="-1" k3="1"/>
<feColorMatrix type="matrix" values="0 0 0 0 1 0 0 0 0 1 0 0 0 0 1 0 0 0 0.25 0"/>
<feBlend mode="normal" in2="shape" result="effect1_innerShadow"/>
</filter>
<clipPath id="clip0">
<rect width="102" height="128" fill="white" transform="translate(0.194214 0.569824)"/>
</clipPath>
</defs>
</svg>
