<svg width="38" height="38" viewBox="0 0 38 38" fill="none" xmlns="http://www.w3.org/2000/svg">
<g clip-path="url(#clip0)">
<path d="M37.0256 19C37.0256 29.4934 30.3385 38 19.5444 38C8.75034 38 0 29.4934 0 19C0 8.50659 8.75034 0 19.5444 0C30.3385 0 37.0256 8.50659 37.0256 19Z" fill="white"/>
<path d="M18.4599 33.5717C22.9885 34.1529 27.3728 32.5692 30.5199 29.456C30.9855 28.9955 30.6314 28.19 29.9906 28.232C22.7039 28.71 16.821 22.2652 17.6878 14.8855C18.1871 10.6345 20.8636 7.01 24.7145 5.36776C25.3081 5.11462 25.2699 4.23233 24.6528 4.03165C23.7876 3.75062 22.8996 3.55105 21.9998 3.43542C13.8956 2.39526 6.52629 8.29113 5.54807 16.6192C4.5711 24.9366 10.3454 32.5302 18.4599 33.5717Z" fill="black"/>
</g>
<defs>
<clipPath id="clip0">
<rect width="37.0256" height="38" fill="white"/>
</clipPath>
</defs>
</svg>
