<svg width="380" height="580" viewBox="0 0 380 580" fill="none" xmlns="http://www.w3.org/2000/svg">
<g clip-path="url(#clip0_24_34)">
<line y1="534.5" x2="382" y2="534.5" stroke="#31289C"/>
<line y1="510.5" x2="382" y2="510.5" stroke="#31289C"/>
<line y1="486.5" x2="382" y2="486.5" stroke="#31289C"/>
<line y1="462.5" x2="382" y2="462.5" stroke="#31289C"/>
<line y1="438.5" x2="382" y2="438.5" stroke="#31289C"/>
<line y1="414.5" x2="382" y2="414.5" stroke="#31289C"/>
<line y1="390.5" x2="382" y2="390.5" stroke="#31289C"/>
<line y1="366.5" x2="382" y2="366.5" stroke="#31289C"/>
<line y1="342.5" x2="382" y2="342.5" stroke="#31289C"/>
<line y1="318.5" x2="382" y2="318.5" stroke="#31289C"/>
<line y1="294.5" x2="382" y2="294.5" stroke="#31289C"/>
<line y1="270.5" x2="382" y2="270.5" stroke="#31289C"/>
<line y1="246.5" x2="382" y2="246.5" stroke="#31289C"/>
<line y1="222.5" x2="382" y2="222.5" stroke="#31289C"/>
<line y1="198.5" x2="382" y2="198.5" stroke="#31289C"/>
<line y1="174.5" x2="382" y2="174.5" stroke="#31289C"/>
<line y1="150.5" x2="382" y2="150.5" stroke="#31289C"/>
<line y1="126.5" x2="382" y2="126.5" stroke="#31289C"/>
<line y1="102.5" x2="382" y2="102.5" stroke="#31289C"/>
<line y1="78.5" x2="382" y2="78.5" stroke="#31289C"/>
<line y1="54.5" x2="382" y2="54.5" stroke="#31289C"/>
<line x1="55.5" y1="575" x2="55.5" y2="-8" stroke="#DF000D"/>
</g>
<defs>
<clipPath id="clip0_24_34">
<rect width="380" height="580" fill="white"/>
</clipPath>
</defs>
</svg>
