<svg width="46" height="51" viewBox="0 0 46 51" fill="none" xmlns="http://www.w3.org/2000/svg">
<g clip-path="url(#clip0)">
<line x1="13.9407" y1="32.39" x2="18.0935" y2="28.0593" stroke="black" stroke-width="4" stroke-linecap="round"/>
<g filter="url(#filter0_d)">
<ellipse cx="23.5" cy="23.4591" rx="11.7311" ry="13.755" transform="rotate(-25.4225 23.5 23.4591)" fill="#FF4545"/>
</g>
<path d="M19 19.5L26.5 12.5C26.6667 12 26.8 10.9 26 10.5C25 10 21 11 19 11.5C17 12 13.5 14.5 13 18C12.6 20.8 16.8333 20.1667 19 19.5Z" fill="#FFA386"/>
<g filter="url(#filter1_i)">
<ellipse cx="31.6652" cy="18.0182" rx="9.97091" ry="11.3638" transform="rotate(-34.6755 31.6652 18.0182)" fill="#FF4545"/>
</g>
<path d="M26.5572 19.8996C27.7572 23.0996 34.3472 26.4806 36.0138 26.6473C35.2138 27.4472 31.3472 26.9806 29.5138 26.6473C28.5138 26.3139 23.4572 22.4996 23.0572 18.8996C22.5572 14.3996 25.5139 10.1474 25.0139 11.1474C24.5139 12.1474 25.0572 15.8996 26.5572 19.8996Z" fill="#FFA386"/>
</g>
<defs>
<filter id="filter0_d" x="-1" y="6" width="41" height="43.9183" filterUnits="userSpaceOnUse" color-interpolation-filters="sRGB">
<feFlood flood-opacity="0" result="BackgroundImageFix"/>
<feColorMatrix in="SourceAlpha" type="matrix" values="0 0 0 0 0 0 0 0 0 0 0 0 0 0 0 0 0 0 127 0" result="hardAlpha"/>
<feOffset dx="-5" dy="6"/>
<feGaussianBlur stdDeviation="1.5"/>
<feComposite in2="hardAlpha" operator="out"/>
<feColorMatrix type="matrix" values="0 0 0 0 0 0 0 0 0 0 0 0 0 0 0 0 0 0 0.25 0"/>
<feBlend mode="normal" in2="BackgroundImageFix" result="effect1_dropShadow"/>
<feBlend mode="normal" in="SourceGraphic" in2="effect1_dropShadow" result="shape"/>
</filter>
<filter id="filter1_i" x="17" y="3" width="29.3303" height="30.0364" filterUnits="userSpaceOnUse" color-interpolation-filters="sRGB">
<feFlood flood-opacity="0" result="BackgroundImageFix"/>
<feBlend mode="normal" in="SourceGraphic" in2="BackgroundImageFix" result="shape"/>
<feColorMatrix in="SourceAlpha" type="matrix" values="0 0 0 0 0 0 0 0 0 0 0 0 0 0 0 0 0 0 127 0" result="hardAlpha"/>
<feOffset dx="1"/>
<feComposite in2="hardAlpha" operator="arithmetic" k2="-1" k3="1"/>
<feColorMatrix type="matrix" values="0 0 0 0 0.875 0 0 0 0 0.116667 0 0 0 0 0.116667 0 0 0 1 0"/>
<feBlend mode="normal" in2="shape" result="effect1_innerShadow"/>
</filter>
<clipPath id="clip0">
<rect width="46" height="51" fill="white"/>
</clipPath>
</defs>
</svg>
