<svg width="38" height="38" viewBox="0 0 38 38" fill="none" xmlns="http://www.w3.org/2000/svg">
<g clip-path="url(#clip0_15:21)">
<path d="M37.0256 19C37.0256 29.4934 30.3385 38 19.5444 38C8.75034 38 0 29.4934 0 19C0 8.50659 8.75034 0 19.5444 0C30.3385 0 37.0256 8.50659 37.0256 19Z" fill="white"/>
<path d="M19 13.375C15.9004 13.375 13.375 15.9004 13.375 19C13.375 22.0996 15.9004 24.625 19 24.625C22.0996 24.625 24.625 22.0996 24.625 19C24.625 15.9004 22.0996 13.375 19 13.375ZM33.4375 18.0918L27.8887 15.3203L29.8516 9.4375C30.1152 8.64063 29.3594 7.88477 28.5684 8.1543L22.6855 10.1172L19.9082 4.5625C19.5332 3.8125 18.4668 3.8125 18.0918 4.5625L15.3203 10.1113L9.43164 8.14844C8.63477 7.88477 7.87891 8.64062 8.14844 9.43164L10.1113 15.3145L4.5625 18.0918C3.8125 18.4668 3.8125 19.5332 4.5625 19.9082L10.1113 22.6797L8.14844 28.5684C7.88477 29.3652 8.64062 30.1211 9.43164 29.8516L15.3145 27.8887L18.0859 33.4375C18.4609 34.1875 19.5273 34.1875 19.9023 33.4375L22.6738 27.8887L28.5566 29.8516C29.3535 30.1152 30.1094 29.3594 29.8398 28.5684L27.877 22.6855L33.4258 19.9141C34.1875 19.5332 34.1875 18.4668 33.4375 18.0918V18.0918ZM24.3027 24.3027C21.3789 27.2266 16.6211 27.2266 13.6973 24.3027C10.7734 21.3789 10.7734 16.6211 13.6973 13.6973C16.6211 10.7734 21.3789 10.7734 24.3027 13.6973C27.2266 16.6211 27.2266 21.3789 24.3027 24.3027Z" fill="black"/>
</g>
<defs>
<clipPath id="clip0_15:21">
<rect width="37.0256" height="38" fill="white"/>
</clipPath>
</defs>
</svg>
