<svg width="38" height="38" viewBox="0 0 38 38" fill="none" xmlns="http://www.w3.org/2000/svg">
<path d="M34.4375 2.375H3.5625C1.5957 2.375 0 3.9707 0 5.9375V32.0625C0 34.0293 1.5957 35.625 3.5625 35.625H34.4375C36.4043 35.625 38 34.0293 38 32.0625V5.9375C38 3.9707 36.4043 2.375 34.4375 2.375ZM28.2328 23.9355C28.5891 24.2918 28.5891 24.8707 28.2328 25.227L25.227 28.2328C24.8707 28.5891 24.2918 28.5891 23.9355 28.2328L19 23.2527L14.0645 28.2328C13.7082 28.5891 13.1293 28.5891 12.773 28.2328L9.76719 25.227C9.41094 24.8707 9.41094 24.2918 9.76719 23.9355L14.7473 19L9.76719 14.0645C9.41094 13.7082 9.41094 13.1293 9.76719 12.773L12.773 9.76719C13.1293 9.41094 13.7082 9.41094 14.0645 9.76719L19 14.7473L23.9355 9.76719C24.2918 9.41094 24.8707 9.41094 25.227 9.76719L28.2328 12.773C28.5891 13.1293 28.5891 13.7082 28.2328 14.0645L23.2527 19L28.2328 23.9355Z" fill="black"/>
</svg>
